<mxfile host="app.diagrams.net" modified="2024-01-11T13:33:46.365Z" agent="Mozilla/5.0 (Windows NT 10.0; Win64; x64) AppleWebKit/537.36 (KHTML, like Gecko) Chrome/120.0.0.0 Safari/537.36" etag="R71pUbKw_Ib6bfgP5lrQ" version="22.1.18" type="device">
  <diagram name="Σελίδα-1" id="hbSK2TkSW8q05f0vw29v">
    <mxGraphModel dx="4103" dy="1891" grid="0" gridSize="10" guides="1" tooltips="1" connect="1" arrows="1" fold="1" page="0" pageScale="1" pageWidth="827" pageHeight="1169" math="0" shadow="0">
      <root>
        <mxCell id="0" />
        <mxCell id="1" parent="0" />
        <mxCell id="Er5PtRPSe2BgaJqmXXbV-211" value="" style="rounded=0;whiteSpace=wrap;html=1;" vertex="1" parent="1">
          <mxGeometry x="-786" y="1458.75" width="1560" height="1070" as="geometry" />
        </mxCell>
        <mxCell id="Er5PtRPSe2BgaJqmXXbV-1" value="" style="ellipse;whiteSpace=wrap;html=1;aspect=fixed;fontSize=16;" vertex="1" parent="1">
          <mxGeometry y="-50" width="80" height="80" as="geometry" />
        </mxCell>
        <mxCell id="Er5PtRPSe2BgaJqmXXbV-2" value="" style="ellipse;whiteSpace=wrap;html=1;aspect=fixed;fontSize=16;" vertex="1" parent="1">
          <mxGeometry x="350" y="-50" width="80" height="80" as="geometry" />
        </mxCell>
        <mxCell id="Er5PtRPSe2BgaJqmXXbV-3" value="" style="ellipse;whiteSpace=wrap;html=1;aspect=fixed;fontSize=16;" vertex="1" parent="1">
          <mxGeometry y="320" width="80" height="80" as="geometry" />
        </mxCell>
        <mxCell id="Er5PtRPSe2BgaJqmXXbV-4" value="" style="ellipse;whiteSpace=wrap;html=1;aspect=fixed;fontSize=16;" vertex="1" parent="1">
          <mxGeometry x="660" y="150" width="80" height="80" as="geometry" />
        </mxCell>
        <mxCell id="Er5PtRPSe2BgaJqmXXbV-5" value="" style="ellipse;whiteSpace=wrap;html=1;aspect=fixed;fontSize=16;" vertex="1" parent="1">
          <mxGeometry x="350" y="320" width="80" height="80" as="geometry" />
        </mxCell>
        <mxCell id="Er5PtRPSe2BgaJqmXXbV-11" value="StateA" style="text;html=1;strokeColor=none;fillColor=none;align=center;verticalAlign=middle;whiteSpace=wrap;rounded=0;fontSize=16;" vertex="1" parent="1">
          <mxGeometry x="10" y="-40" width="60" height="30" as="geometry" />
        </mxCell>
        <mxCell id="Er5PtRPSe2BgaJqmXXbV-12" value="StateB" style="text;html=1;strokeColor=none;fillColor=none;align=center;verticalAlign=middle;whiteSpace=wrap;rounded=0;fontSize=16;" vertex="1" parent="1">
          <mxGeometry x="360" y="-40" width="60" height="30" as="geometry" />
        </mxCell>
        <mxCell id="Er5PtRPSe2BgaJqmXXbV-13" value="StateC" style="text;html=1;strokeColor=none;fillColor=none;align=center;verticalAlign=middle;whiteSpace=wrap;rounded=0;fontSize=16;" vertex="1" parent="1">
          <mxGeometry x="670" y="160" width="60" height="30" as="geometry" />
        </mxCell>
        <mxCell id="Er5PtRPSe2BgaJqmXXbV-14" value="StateD" style="text;html=1;strokeColor=none;fillColor=none;align=center;verticalAlign=middle;whiteSpace=wrap;rounded=0;fontSize=16;" vertex="1" parent="1">
          <mxGeometry x="360" y="330" width="60" height="30" as="geometry" />
        </mxCell>
        <mxCell id="Er5PtRPSe2BgaJqmXXbV-15" value="StateE" style="text;html=1;strokeColor=none;fillColor=none;align=center;verticalAlign=middle;whiteSpace=wrap;rounded=0;fontSize=16;" vertex="1" parent="1">
          <mxGeometry x="10" y="330" width="60" height="30" as="geometry" />
        </mxCell>
        <mxCell id="Er5PtRPSe2BgaJqmXXbV-16" value="" style="endArrow=classic;html=1;rounded=0;fontSize=12;startSize=8;endSize=8;curved=1;exitX=1;exitY=0.5;exitDx=0;exitDy=0;entryX=0;entryY=0.5;entryDx=0;entryDy=0;" edge="1" parent="1" source="Er5PtRPSe2BgaJqmXXbV-1" target="Er5PtRPSe2BgaJqmXXbV-2">
          <mxGeometry width="50" height="50" relative="1" as="geometry">
            <mxPoint x="370" y="230" as="sourcePoint" />
            <mxPoint x="420" y="180" as="targetPoint" />
          </mxGeometry>
        </mxCell>
        <mxCell id="Er5PtRPSe2BgaJqmXXbV-17" value="" style="endArrow=classic;html=1;rounded=0;fontSize=12;startSize=8;endSize=8;curved=1;exitX=1;exitY=0.5;exitDx=0;exitDy=0;entryX=0;entryY=0;entryDx=0;entryDy=0;" edge="1" parent="1" source="Er5PtRPSe2BgaJqmXXbV-2" target="Er5PtRPSe2BgaJqmXXbV-4">
          <mxGeometry width="50" height="50" relative="1" as="geometry">
            <mxPoint x="370" y="230" as="sourcePoint" />
            <mxPoint x="420" y="180" as="targetPoint" />
          </mxGeometry>
        </mxCell>
        <mxCell id="Er5PtRPSe2BgaJqmXXbV-18" value="" style="endArrow=classic;html=1;rounded=0;fontSize=12;startSize=8;endSize=8;curved=1;exitX=0;exitY=1;exitDx=0;exitDy=0;entryX=1;entryY=0.5;entryDx=0;entryDy=0;" edge="1" parent="1" source="Er5PtRPSe2BgaJqmXXbV-4" target="Er5PtRPSe2BgaJqmXXbV-5">
          <mxGeometry width="50" height="50" relative="1" as="geometry">
            <mxPoint x="370" y="230" as="sourcePoint" />
            <mxPoint x="420" y="180" as="targetPoint" />
          </mxGeometry>
        </mxCell>
        <mxCell id="Er5PtRPSe2BgaJqmXXbV-19" value="" style="endArrow=classic;html=1;rounded=0;fontSize=12;startSize=8;endSize=8;curved=1;entryX=1;entryY=0.5;entryDx=0;entryDy=0;exitX=0;exitY=0.5;exitDx=0;exitDy=0;" edge="1" parent="1" source="Er5PtRPSe2BgaJqmXXbV-5" target="Er5PtRPSe2BgaJqmXXbV-3">
          <mxGeometry width="50" height="50" relative="1" as="geometry">
            <mxPoint x="370" y="230" as="sourcePoint" />
            <mxPoint x="420" y="180" as="targetPoint" />
          </mxGeometry>
        </mxCell>
        <mxCell id="Er5PtRPSe2BgaJqmXXbV-20" value="" style="endArrow=classic;html=1;rounded=0;fontSize=12;startSize=8;endSize=8;curved=1;entryX=0.5;entryY=1;entryDx=0;entryDy=0;exitX=0.5;exitY=0;exitDx=0;exitDy=0;" edge="1" parent="1" source="Er5PtRPSe2BgaJqmXXbV-3" target="Er5PtRPSe2BgaJqmXXbV-1">
          <mxGeometry width="50" height="50" relative="1" as="geometry">
            <mxPoint x="370" y="230" as="sourcePoint" />
            <mxPoint x="420" y="180" as="targetPoint" />
          </mxGeometry>
        </mxCell>
        <mxCell id="Er5PtRPSe2BgaJqmXXbV-22" value="" style="curved=1;endArrow=classic;html=1;rounded=0;fontSize=12;startSize=8;endSize=8;exitX=1;exitY=0;exitDx=0;exitDy=0;entryX=0.5;entryY=0;entryDx=0;entryDy=0;" edge="1" parent="1" source="Er5PtRPSe2BgaJqmXXbV-2" target="Er5PtRPSe2BgaJqmXXbV-2">
          <mxGeometry width="50" height="50" relative="1" as="geometry">
            <mxPoint x="440" y="-50" as="sourcePoint" />
            <mxPoint x="490" y="-100" as="targetPoint" />
            <Array as="points">
              <mxPoint x="490" y="-50" />
              <mxPoint x="440" y="-100" />
            </Array>
          </mxGeometry>
        </mxCell>
        <mxCell id="Er5PtRPSe2BgaJqmXXbV-23" value="" style="curved=1;endArrow=classic;html=1;rounded=0;fontSize=12;startSize=8;endSize=8;exitX=1;exitY=1;exitDx=0;exitDy=0;entryX=1;entryY=0.5;entryDx=0;entryDy=0;" edge="1" parent="1" source="Er5PtRPSe2BgaJqmXXbV-4" target="Er5PtRPSe2BgaJqmXXbV-4">
          <mxGeometry width="50" height="50" relative="1" as="geometry">
            <mxPoint x="770" y="225" as="sourcePoint" />
            <mxPoint x="820" y="175" as="targetPoint" />
            <Array as="points">
              <mxPoint x="820" y="225" />
              <mxPoint x="770" y="175" />
            </Array>
          </mxGeometry>
        </mxCell>
        <mxCell id="Er5PtRPSe2BgaJqmXXbV-25" value="" style="curved=1;endArrow=classic;html=1;rounded=0;fontSize=12;startSize=8;endSize=8;exitX=0.64;exitY=1.018;exitDx=0;exitDy=0;exitPerimeter=0;entryX=1;entryY=1;entryDx=0;entryDy=0;" edge="1" parent="1" source="Er5PtRPSe2BgaJqmXXbV-5" target="Er5PtRPSe2BgaJqmXXbV-5">
          <mxGeometry width="50" height="50" relative="1" as="geometry">
            <mxPoint x="400" y="450" as="sourcePoint" />
            <mxPoint x="450" y="400" as="targetPoint" />
            <Array as="points">
              <mxPoint x="450" y="450" />
              <mxPoint x="500" y="420" />
            </Array>
          </mxGeometry>
        </mxCell>
        <mxCell id="Er5PtRPSe2BgaJqmXXbV-26" value="" style="curved=1;endArrow=classic;html=1;rounded=0;fontSize=12;startSize=8;endSize=8;exitX=1;exitY=1;exitDx=0;exitDy=0;entryX=0.5;entryY=1;entryDx=0;entryDy=0;" edge="1" parent="1" source="Er5PtRPSe2BgaJqmXXbV-3" target="Er5PtRPSe2BgaJqmXXbV-3">
          <mxGeometry width="50" height="50" relative="1" as="geometry">
            <mxPoint x="20" y="460" as="sourcePoint" />
            <mxPoint x="70" y="410" as="targetPoint" />
            <Array as="points">
              <mxPoint x="70" y="460" />
              <mxPoint x="20" y="410" />
            </Array>
          </mxGeometry>
        </mxCell>
        <mxCell id="Er5PtRPSe2BgaJqmXXbV-29" value="" style="endArrow=none;dashed=1;html=1;rounded=0;fontSize=12;startSize=8;endSize=8;curved=1;exitX=0;exitY=0.5;exitDx=0;exitDy=0;entryX=1;entryY=0.5;entryDx=0;entryDy=0;" edge="1" parent="1" source="Er5PtRPSe2BgaJqmXXbV-1" target="Er5PtRPSe2BgaJqmXXbV-1">
          <mxGeometry width="50" height="50" relative="1" as="geometry">
            <mxPoint x="220" y="100" as="sourcePoint" />
            <mxPoint x="270" y="50" as="targetPoint" />
          </mxGeometry>
        </mxCell>
        <mxCell id="Er5PtRPSe2BgaJqmXXbV-30" value="" style="endArrow=none;dashed=1;html=1;rounded=0;fontSize=12;startSize=8;endSize=8;curved=1;entryX=1;entryY=0.5;entryDx=0;entryDy=0;exitX=0;exitY=0.5;exitDx=0;exitDy=0;" edge="1" parent="1" source="Er5PtRPSe2BgaJqmXXbV-2" target="Er5PtRPSe2BgaJqmXXbV-2">
          <mxGeometry width="50" height="50" relative="1" as="geometry">
            <mxPoint x="220" y="100" as="sourcePoint" />
            <mxPoint x="270" y="50" as="targetPoint" />
          </mxGeometry>
        </mxCell>
        <mxCell id="Er5PtRPSe2BgaJqmXXbV-31" value="" style="endArrow=none;dashed=1;html=1;rounded=0;fontSize=12;startSize=8;endSize=8;curved=1;entryX=1;entryY=0.5;entryDx=0;entryDy=0;exitX=0;exitY=0.5;exitDx=0;exitDy=0;" edge="1" parent="1" source="Er5PtRPSe2BgaJqmXXbV-4" target="Er5PtRPSe2BgaJqmXXbV-4">
          <mxGeometry width="50" height="50" relative="1" as="geometry">
            <mxPoint x="550" y="100" as="sourcePoint" />
            <mxPoint x="600" y="50" as="targetPoint" />
          </mxGeometry>
        </mxCell>
        <mxCell id="Er5PtRPSe2BgaJqmXXbV-32" value="" style="endArrow=none;dashed=1;html=1;rounded=0;fontSize=12;startSize=8;endSize=8;curved=1;exitX=0;exitY=0.5;exitDx=0;exitDy=0;entryX=1;entryY=0.5;entryDx=0;entryDy=0;" edge="1" parent="1" source="Er5PtRPSe2BgaJqmXXbV-5" target="Er5PtRPSe2BgaJqmXXbV-5">
          <mxGeometry width="50" height="50" relative="1" as="geometry">
            <mxPoint x="550" y="340" as="sourcePoint" />
            <mxPoint x="600" y="290" as="targetPoint" />
          </mxGeometry>
        </mxCell>
        <mxCell id="Er5PtRPSe2BgaJqmXXbV-33" value="" style="endArrow=none;dashed=1;html=1;rounded=0;fontSize=12;startSize=8;endSize=8;curved=1;entryX=1;entryY=0.5;entryDx=0;entryDy=0;exitX=0;exitY=0.5;exitDx=0;exitDy=0;" edge="1" parent="1" source="Er5PtRPSe2BgaJqmXXbV-3" target="Er5PtRPSe2BgaJqmXXbV-3">
          <mxGeometry width="50" height="50" relative="1" as="geometry">
            <mxPoint x="140" y="300" as="sourcePoint" />
            <mxPoint x="110" y="290" as="targetPoint" />
          </mxGeometry>
        </mxCell>
        <mxCell id="Er5PtRPSe2BgaJqmXXbV-35" value="&lt;font style=&quot;font-size: 9px;&quot;&gt;&lt;b&gt;VGA_HSYNC=1&lt;br&gt;HRGB_EN=0&lt;/b&gt;&lt;/font&gt;" style="text;html=1;strokeColor=none;fillColor=none;align=center;verticalAlign=middle;whiteSpace=wrap;rounded=0;fontSize=16;" vertex="1" parent="1">
          <mxGeometry x="10" y="-10" width="60" height="30" as="geometry" />
        </mxCell>
        <mxCell id="Er5PtRPSe2BgaJqmXXbV-38" value="&lt;font style=&quot;font-size: 9px;&quot;&gt;&lt;b&gt;VGA_HSYNC=0&lt;br&gt;HRGB_EN=0&lt;/b&gt;&lt;/font&gt;" style="text;html=1;strokeColor=none;fillColor=none;align=center;verticalAlign=middle;whiteSpace=wrap;rounded=0;fontSize=16;" vertex="1" parent="1">
          <mxGeometry x="360" y="-10" width="60" height="30" as="geometry" />
        </mxCell>
        <mxCell id="Er5PtRPSe2BgaJqmXXbV-39" value="&lt;font style=&quot;font-size: 9px;&quot;&gt;&lt;b&gt;VGA_HSYNC=1&lt;br&gt;HRGB_EN=0&lt;/b&gt;&lt;/font&gt;" style="text;html=1;strokeColor=none;fillColor=none;align=center;verticalAlign=middle;whiteSpace=wrap;rounded=0;fontSize=16;" vertex="1" parent="1">
          <mxGeometry x="670" y="190" width="60" height="30" as="geometry" />
        </mxCell>
        <mxCell id="Er5PtRPSe2BgaJqmXXbV-40" value="&lt;font style=&quot;font-size: 9px;&quot;&gt;&lt;b&gt;VGA_HSYNC=1&lt;br&gt;HRGB_EN=1&lt;/b&gt;&lt;/font&gt;" style="text;html=1;strokeColor=none;fillColor=none;align=center;verticalAlign=middle;whiteSpace=wrap;rounded=0;fontSize=16;" vertex="1" parent="1">
          <mxGeometry x="360" y="360" width="60" height="30" as="geometry" />
        </mxCell>
        <mxCell id="Er5PtRPSe2BgaJqmXXbV-41" value="&lt;font style=&quot;font-size: 9px;&quot;&gt;&lt;b&gt;VGA_HSYNC=1&lt;br&gt;HRGB_EN=0&lt;/b&gt;&lt;/font&gt;" style="text;html=1;strokeColor=none;fillColor=none;align=center;verticalAlign=middle;whiteSpace=wrap;rounded=0;fontSize=16;" vertex="1" parent="1">
          <mxGeometry x="10" y="360" width="60" height="30" as="geometry" />
        </mxCell>
        <mxCell id="Er5PtRPSe2BgaJqmXXbV-42" value="hcount==95" style="text;html=1;strokeColor=none;fillColor=none;align=center;verticalAlign=middle;whiteSpace=wrap;rounded=0;fontSize=16;rotation=35;" vertex="1" parent="1">
          <mxGeometry x="530" y="50" width="60" height="30" as="geometry" />
        </mxCell>
        <mxCell id="Er5PtRPSe2BgaJqmXXbV-45" value="hcount&amp;lt;95" style="text;html=1;strokeColor=none;fillColor=none;align=center;verticalAlign=middle;whiteSpace=wrap;rounded=0;fontSize=16;" vertex="1" parent="1">
          <mxGeometry x="420" y="-120" width="60" height="30" as="geometry" />
        </mxCell>
        <mxCell id="Er5PtRPSe2BgaJqmXXbV-46" value="hcount&amp;lt;142" style="text;html=1;strokeColor=none;fillColor=none;align=center;verticalAlign=middle;whiteSpace=wrap;rounded=0;fontSize=16;" vertex="1" parent="1">
          <mxGeometry x="780" y="150" width="60" height="30" as="geometry" />
        </mxCell>
        <mxCell id="Er5PtRPSe2BgaJqmXXbV-47" value="hcount==142" style="text;html=1;strokeColor=none;fillColor=none;align=center;verticalAlign=middle;whiteSpace=wrap;rounded=0;fontSize=16;rotation=-30;" vertex="1" parent="1">
          <mxGeometry x="520" y="260" width="60" height="30" as="geometry" />
        </mxCell>
        <mxCell id="Er5PtRPSe2BgaJqmXXbV-48" value="hcount&amp;lt;781" style="text;html=1;strokeColor=none;fillColor=none;align=center;verticalAlign=middle;whiteSpace=wrap;rounded=0;fontSize=16;" vertex="1" parent="1">
          <mxGeometry x="440" y="450" width="60" height="30" as="geometry" />
        </mxCell>
        <mxCell id="Er5PtRPSe2BgaJqmXXbV-49" value="hcount==781" style="text;html=1;strokeColor=none;fillColor=none;align=center;verticalAlign=middle;whiteSpace=wrap;rounded=0;fontSize=16;" vertex="1" parent="1">
          <mxGeometry x="190" y="330" width="60" height="30" as="geometry" />
        </mxCell>
        <mxCell id="Er5PtRPSe2BgaJqmXXbV-50" value="hcount&amp;lt;795" style="text;html=1;strokeColor=none;fillColor=none;align=center;verticalAlign=middle;whiteSpace=wrap;rounded=0;fontSize=16;" vertex="1" parent="1">
          <mxGeometry x="20" y="440" width="60" height="30" as="geometry" />
        </mxCell>
        <mxCell id="Er5PtRPSe2BgaJqmXXbV-51" value="hcount==795" style="text;html=1;strokeColor=none;fillColor=none;align=center;verticalAlign=middle;whiteSpace=wrap;rounded=0;fontSize=16;rotation=-90;" vertex="1" parent="1">
          <mxGeometry x="-10" y="175" width="60" height="30" as="geometry" />
        </mxCell>
        <mxCell id="Er5PtRPSe2BgaJqmXXbV-55" value="" style="endArrow=none;html=1;rounded=0;fontSize=22;startSize=8;endSize=8;curved=1;exitX=0;exitY=0.25;exitDx=0;exitDy=0;" edge="1" parent="1">
          <mxGeometry width="50" height="50" relative="1" as="geometry">
            <mxPoint x="-376" y="1570" as="sourcePoint" />
            <mxPoint x="-556" y="1570.75" as="targetPoint" />
          </mxGeometry>
        </mxCell>
        <mxCell id="Er5PtRPSe2BgaJqmXXbV-56" value="" style="endArrow=none;html=1;rounded=0;fontSize=22;startSize=8;endSize=8;curved=1;exitX=0;exitY=0.25;exitDx=0;exitDy=0;" edge="1" parent="1">
          <mxGeometry width="50" height="50" relative="1" as="geometry">
            <mxPoint x="-376" y="1697.5" as="sourcePoint" />
            <mxPoint x="-746" y="1697.75" as="targetPoint" />
          </mxGeometry>
        </mxCell>
        <mxCell id="Er5PtRPSe2BgaJqmXXbV-59" value="" style="endArrow=none;html=1;rounded=0;fontSize=22;startSize=8;endSize=8;curved=1;" edge="1" parent="1">
          <mxGeometry width="50" height="50" relative="1" as="geometry">
            <mxPoint x="574" y="1527.75" as="sourcePoint" />
            <mxPoint x="-146" y="1527.5" as="targetPoint" />
          </mxGeometry>
        </mxCell>
        <mxCell id="Er5PtRPSe2BgaJqmXXbV-60" value="" style="endArrow=none;html=1;rounded=0;fontSize=12;startSize=8;endSize=8;curved=1;" edge="1" parent="1">
          <mxGeometry width="50" height="50" relative="1" as="geometry">
            <mxPoint x="874" y="1598.75" as="sourcePoint" />
            <mxPoint x="-146" y="1597.5" as="targetPoint" />
          </mxGeometry>
        </mxCell>
        <mxCell id="Er5PtRPSe2BgaJqmXXbV-61" value="" style="endArrow=none;html=1;rounded=0;fontSize=22;startSize=8;endSize=8;curved=1;exitX=0;exitY=0.25;exitDx=0;exitDy=0;" edge="1" parent="1">
          <mxGeometry width="50" height="50" relative="1" as="geometry">
            <mxPoint x="-16" y="1667.5" as="sourcePoint" />
            <mxPoint x="-146" y="1667.5" as="targetPoint" />
          </mxGeometry>
        </mxCell>
        <mxCell id="Er5PtRPSe2BgaJqmXXbV-62" value="" style="endArrow=none;html=1;rounded=0;fontSize=22;startSize=8;endSize=8;curved=1;" edge="1" parent="1">
          <mxGeometry width="50" height="50" relative="1" as="geometry">
            <mxPoint x="-46" y="1747.75" as="sourcePoint" />
            <mxPoint x="-146" y="1747.5" as="targetPoint" />
          </mxGeometry>
        </mxCell>
        <mxCell id="Er5PtRPSe2BgaJqmXXbV-63" value="clk_out" style="text;html=1;strokeColor=none;fillColor=none;align=center;verticalAlign=middle;whiteSpace=wrap;rounded=0;fontSize=22;" vertex="1" parent="1">
          <mxGeometry x="-526" y="1527.5" width="60" height="30" as="geometry" />
        </mxCell>
        <mxCell id="Er5PtRPSe2BgaJqmXXbV-64" value="reset" style="text;html=1;strokeColor=none;fillColor=none;align=center;verticalAlign=middle;whiteSpace=wrap;rounded=0;fontSize=22;" vertex="1" parent="1">
          <mxGeometry x="-526" y="1657.5" width="60" height="30" as="geometry" />
        </mxCell>
        <mxCell id="Er5PtRPSe2BgaJqmXXbV-65" value="VGA_HSYNC" style="text;html=1;strokeColor=none;fillColor=none;align=center;verticalAlign=middle;whiteSpace=wrap;rounded=0;fontSize=22;" vertex="1" parent="1">
          <mxGeometry x="-56" y="1557.5" width="60" height="30" as="geometry" />
        </mxCell>
        <mxCell id="Er5PtRPSe2BgaJqmXXbV-66" value="HPIXEL" style="text;html=1;strokeColor=none;fillColor=none;align=center;verticalAlign=middle;whiteSpace=wrap;rounded=0;fontSize=22;" vertex="1" parent="1">
          <mxGeometry x="-46" y="1477.5" width="60" height="30" as="geometry" />
        </mxCell>
        <mxCell id="Er5PtRPSe2BgaJqmXXbV-67" value="hcount" style="text;html=1;strokeColor=none;fillColor=none;align=center;verticalAlign=middle;whiteSpace=wrap;rounded=0;fontSize=22;" vertex="1" parent="1">
          <mxGeometry x="-56" y="1627.5" width="60" height="30" as="geometry" />
        </mxCell>
        <mxCell id="Er5PtRPSe2BgaJqmXXbV-68" value="HRGB_EN" style="text;html=1;strokeColor=none;fillColor=none;align=center;verticalAlign=middle;whiteSpace=wrap;rounded=0;fontSize=22;" vertex="1" parent="1">
          <mxGeometry x="-106" y="1707.5" width="60" height="30" as="geometry" />
        </mxCell>
        <mxCell id="Er5PtRPSe2BgaJqmXXbV-71" value="" style="endArrow=none;html=1;rounded=0;fontSize=22;startSize=8;endSize=8;curved=1;" edge="1" parent="1">
          <mxGeometry width="50" height="50" relative="1" as="geometry">
            <mxPoint x="-16" y="1517.5" as="sourcePoint" />
            <mxPoint x="-36" y="1537.5" as="targetPoint" />
          </mxGeometry>
        </mxCell>
        <mxCell id="Er5PtRPSe2BgaJqmXXbV-72" style="edgeStyle=none;curved=1;rounded=0;orthogonalLoop=1;jettySize=auto;html=1;exitX=0.5;exitY=0;exitDx=0;exitDy=0;fontSize=22;startSize=8;endSize=8;" edge="1" parent="1" source="Er5PtRPSe2BgaJqmXXbV-66" target="Er5PtRPSe2BgaJqmXXbV-66">
          <mxGeometry relative="1" as="geometry" />
        </mxCell>
        <mxCell id="Er5PtRPSe2BgaJqmXXbV-73" value="7" style="text;html=1;strokeColor=none;fillColor=none;align=center;verticalAlign=middle;whiteSpace=wrap;rounded=0;fontSize=22;" vertex="1" parent="1">
          <mxGeometry x="-46" y="1527.5" width="60" height="30" as="geometry" />
        </mxCell>
        <mxCell id="Er5PtRPSe2BgaJqmXXbV-74" value="" style="rounded=0;whiteSpace=wrap;html=1;fontSize=16;" vertex="1" parent="1">
          <mxGeometry x="1380" y="768.75" width="740" height="690" as="geometry" />
        </mxCell>
        <mxCell id="Er5PtRPSe2BgaJqmXXbV-75" value="" style="endArrow=none;html=1;rounded=0;fontSize=22;startSize=8;endSize=8;curved=1;exitX=0;exitY=0.25;exitDx=0;exitDy=0;" edge="1" parent="1">
          <mxGeometry width="50" height="50" relative="1" as="geometry">
            <mxPoint x="173.99999999999955" y="1812.92" as="sourcePoint" />
            <mxPoint x="-196" y="1818.75" as="targetPoint" />
          </mxGeometry>
        </mxCell>
        <mxCell id="Er5PtRPSe2BgaJqmXXbV-76" value="" style="endArrow=none;html=1;rounded=0;fontSize=22;startSize=8;endSize=8;curved=1;exitX=0;exitY=0.25;exitDx=0;exitDy=0;" edge="1" parent="1">
          <mxGeometry width="50" height="50" relative="1" as="geometry">
            <mxPoint x="174" y="1940.42" as="sourcePoint" />
            <mxPoint x="-486" y="1938.75" as="targetPoint" />
          </mxGeometry>
        </mxCell>
        <mxCell id="Er5PtRPSe2BgaJqmXXbV-77" value="" style="endArrow=none;html=1;rounded=0;fontSize=22;startSize=8;endSize=8;curved=1;" edge="1" parent="1">
          <mxGeometry width="50" height="50" relative="1" as="geometry">
            <mxPoint x="734" y="1808.75" as="sourcePoint" />
            <mxPoint x="417.8299999999999" y="1808.75" as="targetPoint" />
          </mxGeometry>
        </mxCell>
        <mxCell id="Er5PtRPSe2BgaJqmXXbV-78" value="" style="endArrow=none;html=1;rounded=0;fontSize=12;startSize=8;endSize=8;curved=1;" edge="1" parent="1">
          <mxGeometry width="50" height="50" relative="1" as="geometry">
            <mxPoint x="914" y="1902.75" as="sourcePoint" />
            <mxPoint x="417.8299999999999" y="1902.92" as="targetPoint" />
          </mxGeometry>
        </mxCell>
        <mxCell id="Er5PtRPSe2BgaJqmXXbV-79" value="" style="endArrow=none;html=1;rounded=0;fontSize=22;startSize=8;endSize=8;curved=1;exitX=0;exitY=0.25;exitDx=0;exitDy=0;" edge="1" parent="1">
          <mxGeometry width="50" height="50" relative="1" as="geometry">
            <mxPoint x="174" y="2041.67" as="sourcePoint" />
            <mxPoint x="-16" y="2038.75" as="targetPoint" />
          </mxGeometry>
        </mxCell>
        <mxCell id="Er5PtRPSe2BgaJqmXXbV-80" value="" style="endArrow=none;html=1;rounded=0;fontSize=22;startSize=8;endSize=8;curved=1;exitX=0;exitY=0.25;exitDx=0;exitDy=0;" edge="1" parent="1">
          <mxGeometry width="50" height="50" relative="1" as="geometry">
            <mxPoint x="547.8299999999999" y="2028.75" as="sourcePoint" />
            <mxPoint x="417.8299999999999" y="2028.75" as="targetPoint" />
          </mxGeometry>
        </mxCell>
        <mxCell id="Er5PtRPSe2BgaJqmXXbV-81" value="clk_out" style="text;html=1;strokeColor=none;fillColor=none;align=center;verticalAlign=middle;whiteSpace=wrap;rounded=0;fontSize=22;" vertex="1" parent="1">
          <mxGeometry x="24" y="1770.42" width="60" height="30" as="geometry" />
        </mxCell>
        <mxCell id="Er5PtRPSe2BgaJqmXXbV-82" value="reset" style="text;html=1;strokeColor=none;fillColor=none;align=center;verticalAlign=middle;whiteSpace=wrap;rounded=0;fontSize=22;" vertex="1" parent="1">
          <mxGeometry x="24" y="1900.42" width="60" height="30" as="geometry" />
        </mxCell>
        <mxCell id="Er5PtRPSe2BgaJqmXXbV-83" value="VGA_VSYNC" style="text;html=1;strokeColor=none;fillColor=none;align=center;verticalAlign=middle;whiteSpace=wrap;rounded=0;fontSize=22;" vertex="1" parent="1">
          <mxGeometry x="507.8299999999999" y="1860" width="60" height="30" as="geometry" />
        </mxCell>
        <mxCell id="Er5PtRPSe2BgaJqmXXbV-84" value="VPIXEL" style="text;html=1;strokeColor=none;fillColor=none;align=center;verticalAlign=middle;whiteSpace=wrap;rounded=0;fontSize=22;" vertex="1" parent="1">
          <mxGeometry x="517.8299999999999" y="1758.75" width="60" height="30" as="geometry" />
        </mxCell>
        <mxCell id="Er5PtRPSe2BgaJqmXXbV-85" value="hcount" style="text;html=1;strokeColor=none;fillColor=none;align=center;verticalAlign=middle;whiteSpace=wrap;rounded=0;fontSize=22;" vertex="1" parent="1">
          <mxGeometry x="24" y="2000.42" width="60" height="30" as="geometry" />
        </mxCell>
        <mxCell id="Er5PtRPSe2BgaJqmXXbV-86" value="VRGB_EN" style="text;html=1;strokeColor=none;fillColor=none;align=center;verticalAlign=middle;whiteSpace=wrap;rounded=0;fontSize=22;" vertex="1" parent="1">
          <mxGeometry x="507.8299999999999" y="1988.75" width="60" height="30" as="geometry" />
        </mxCell>
        <mxCell id="Er5PtRPSe2BgaJqmXXbV-87" style="edgeStyle=none;curved=1;rounded=0;orthogonalLoop=1;jettySize=auto;html=1;exitX=1;exitY=1;exitDx=0;exitDy=0;fontSize=12;startSize=8;endSize=8;" edge="1" parent="1" source="Er5PtRPSe2BgaJqmXXbV-74" target="Er5PtRPSe2BgaJqmXXbV-74">
          <mxGeometry relative="1" as="geometry" />
        </mxCell>
        <mxCell id="Er5PtRPSe2BgaJqmXXbV-88" value="&lt;b&gt;&lt;font style=&quot;font-size: 22px;&quot;&gt;Vcounter&lt;/font&gt;&lt;/b&gt;" style="text;html=1;strokeColor=none;fillColor=none;align=center;verticalAlign=middle;whiteSpace=wrap;rounded=0;fontSize=16;" vertex="1" parent="1">
          <mxGeometry x="1380" y="1398.75" width="140" height="60" as="geometry" />
        </mxCell>
        <mxCell id="Er5PtRPSe2BgaJqmXXbV-89" value="" style="endArrow=none;html=1;rounded=0;fontSize=22;startSize=8;endSize=8;curved=1;" edge="1" parent="1">
          <mxGeometry width="50" height="50" relative="1" as="geometry">
            <mxPoint x="547.8299999999999" y="1798.75" as="sourcePoint" />
            <mxPoint x="527.8299999999999" y="1818.75" as="targetPoint" />
          </mxGeometry>
        </mxCell>
        <mxCell id="Er5PtRPSe2BgaJqmXXbV-90" style="edgeStyle=none;curved=1;rounded=0;orthogonalLoop=1;jettySize=auto;html=1;exitX=0.5;exitY=0;exitDx=0;exitDy=0;fontSize=22;startSize=8;endSize=8;" edge="1" parent="1" source="Er5PtRPSe2BgaJqmXXbV-84" target="Er5PtRPSe2BgaJqmXXbV-84">
          <mxGeometry relative="1" as="geometry" />
        </mxCell>
        <mxCell id="Er5PtRPSe2BgaJqmXXbV-91" value="7" style="text;html=1;strokeColor=none;fillColor=none;align=center;verticalAlign=middle;whiteSpace=wrap;rounded=0;fontSize=22;" vertex="1" parent="1">
          <mxGeometry x="517.8299999999999" y="1808.75" width="60" height="30" as="geometry" />
        </mxCell>
        <mxCell id="Er5PtRPSe2BgaJqmXXbV-96" value="" style="endArrow=none;html=1;rounded=0;fontSize=22;startSize=8;endSize=8;curved=1;" edge="1" parent="1">
          <mxGeometry width="50" height="50" relative="1" as="geometry">
            <mxPoint x="74" y="2030.42" as="sourcePoint" />
            <mxPoint x="54" y="2049.17" as="targetPoint" />
          </mxGeometry>
        </mxCell>
        <mxCell id="Er5PtRPSe2BgaJqmXXbV-97" value="10" style="text;html=1;strokeColor=none;fillColor=none;align=center;verticalAlign=middle;whiteSpace=wrap;rounded=0;fontSize=22;" vertex="1" parent="1">
          <mxGeometry x="34" y="2051.67" width="60" height="30" as="geometry" />
        </mxCell>
        <mxCell id="Er5PtRPSe2BgaJqmXXbV-98" value="" style="endArrow=none;html=1;rounded=0;fontSize=22;startSize=8;endSize=8;curved=1;" edge="1" parent="1">
          <mxGeometry width="50" height="50" relative="1" as="geometry">
            <mxPoint x="-26" y="1657.5" as="sourcePoint" />
            <mxPoint x="-46" y="1677.5" as="targetPoint" />
          </mxGeometry>
        </mxCell>
        <mxCell id="Er5PtRPSe2BgaJqmXXbV-99" value="10" style="text;html=1;strokeColor=none;fillColor=none;align=center;verticalAlign=middle;whiteSpace=wrap;rounded=0;fontSize=22;" vertex="1" parent="1">
          <mxGeometry x="-46" y="1666.25" width="60" height="30" as="geometry" />
        </mxCell>
        <mxCell id="Er5PtRPSe2BgaJqmXXbV-100" value="" style="ellipse;whiteSpace=wrap;html=1;aspect=fixed;fontSize=16;" vertex="1" parent="1">
          <mxGeometry x="1047" y="10" width="80" height="80" as="geometry" />
        </mxCell>
        <mxCell id="Er5PtRPSe2BgaJqmXXbV-101" value="" style="ellipse;whiteSpace=wrap;html=1;aspect=fixed;fontSize=16;" vertex="1" parent="1">
          <mxGeometry x="1397" y="10" width="80" height="80" as="geometry" />
        </mxCell>
        <mxCell id="Er5PtRPSe2BgaJqmXXbV-102" value="" style="ellipse;whiteSpace=wrap;html=1;aspect=fixed;fontSize=16;" vertex="1" parent="1">
          <mxGeometry x="1047" y="380" width="80" height="80" as="geometry" />
        </mxCell>
        <mxCell id="Er5PtRPSe2BgaJqmXXbV-103" value="" style="ellipse;whiteSpace=wrap;html=1;aspect=fixed;fontSize=16;" vertex="1" parent="1">
          <mxGeometry x="1707" y="210" width="80" height="80" as="geometry" />
        </mxCell>
        <mxCell id="Er5PtRPSe2BgaJqmXXbV-104" value="" style="ellipse;whiteSpace=wrap;html=1;aspect=fixed;fontSize=16;" vertex="1" parent="1">
          <mxGeometry x="1397" y="380" width="80" height="80" as="geometry" />
        </mxCell>
        <mxCell id="Er5PtRPSe2BgaJqmXXbV-105" value="StateO" style="text;html=1;strokeColor=none;fillColor=none;align=center;verticalAlign=middle;whiteSpace=wrap;rounded=0;fontSize=16;" vertex="1" parent="1">
          <mxGeometry x="1057" y="20" width="60" height="30" as="geometry" />
        </mxCell>
        <mxCell id="Er5PtRPSe2BgaJqmXXbV-106" value="StateP" style="text;html=1;strokeColor=none;fillColor=none;align=center;verticalAlign=middle;whiteSpace=wrap;rounded=0;fontSize=16;" vertex="1" parent="1">
          <mxGeometry x="1407" y="20" width="60" height="30" as="geometry" />
        </mxCell>
        <mxCell id="Er5PtRPSe2BgaJqmXXbV-107" value="StateQ" style="text;html=1;strokeColor=none;fillColor=none;align=center;verticalAlign=middle;whiteSpace=wrap;rounded=0;fontSize=16;" vertex="1" parent="1">
          <mxGeometry x="1717" y="220" width="60" height="30" as="geometry" />
        </mxCell>
        <mxCell id="Er5PtRPSe2BgaJqmXXbV-108" value="StateR" style="text;html=1;strokeColor=none;fillColor=none;align=center;verticalAlign=middle;whiteSpace=wrap;rounded=0;fontSize=16;" vertex="1" parent="1">
          <mxGeometry x="1407" y="390" width="60" height="30" as="geometry" />
        </mxCell>
        <mxCell id="Er5PtRPSe2BgaJqmXXbV-109" value="StateS" style="text;html=1;strokeColor=none;fillColor=none;align=center;verticalAlign=middle;whiteSpace=wrap;rounded=0;fontSize=16;" vertex="1" parent="1">
          <mxGeometry x="1057" y="390" width="60" height="30" as="geometry" />
        </mxCell>
        <mxCell id="Er5PtRPSe2BgaJqmXXbV-110" value="" style="endArrow=classic;html=1;rounded=0;fontSize=12;startSize=8;endSize=8;curved=1;exitX=1;exitY=0.5;exitDx=0;exitDy=0;entryX=0;entryY=0.5;entryDx=0;entryDy=0;" edge="1" parent="1" source="Er5PtRPSe2BgaJqmXXbV-100" target="Er5PtRPSe2BgaJqmXXbV-101">
          <mxGeometry width="50" height="50" relative="1" as="geometry">
            <mxPoint x="1417" y="290" as="sourcePoint" />
            <mxPoint x="1467" y="240" as="targetPoint" />
          </mxGeometry>
        </mxCell>
        <mxCell id="Er5PtRPSe2BgaJqmXXbV-111" value="" style="endArrow=classic;html=1;rounded=0;fontSize=12;startSize=8;endSize=8;curved=1;exitX=1;exitY=0.5;exitDx=0;exitDy=0;entryX=0;entryY=0;entryDx=0;entryDy=0;" edge="1" parent="1" source="Er5PtRPSe2BgaJqmXXbV-101" target="Er5PtRPSe2BgaJqmXXbV-103">
          <mxGeometry width="50" height="50" relative="1" as="geometry">
            <mxPoint x="1417" y="290" as="sourcePoint" />
            <mxPoint x="1467" y="240" as="targetPoint" />
          </mxGeometry>
        </mxCell>
        <mxCell id="Er5PtRPSe2BgaJqmXXbV-112" value="" style="endArrow=classic;html=1;rounded=0;fontSize=12;startSize=8;endSize=8;curved=1;exitX=0;exitY=1;exitDx=0;exitDy=0;entryX=1;entryY=0.5;entryDx=0;entryDy=0;" edge="1" parent="1" source="Er5PtRPSe2BgaJqmXXbV-103" target="Er5PtRPSe2BgaJqmXXbV-104">
          <mxGeometry width="50" height="50" relative="1" as="geometry">
            <mxPoint x="1417" y="290" as="sourcePoint" />
            <mxPoint x="1467" y="240" as="targetPoint" />
          </mxGeometry>
        </mxCell>
        <mxCell id="Er5PtRPSe2BgaJqmXXbV-113" value="" style="endArrow=classic;html=1;rounded=0;fontSize=12;startSize=8;endSize=8;curved=1;entryX=1;entryY=0.5;entryDx=0;entryDy=0;exitX=0;exitY=0.5;exitDx=0;exitDy=0;" edge="1" parent="1" source="Er5PtRPSe2BgaJqmXXbV-104" target="Er5PtRPSe2BgaJqmXXbV-102">
          <mxGeometry width="50" height="50" relative="1" as="geometry">
            <mxPoint x="1417" y="290" as="sourcePoint" />
            <mxPoint x="1467" y="240" as="targetPoint" />
          </mxGeometry>
        </mxCell>
        <mxCell id="Er5PtRPSe2BgaJqmXXbV-114" value="" style="endArrow=classic;html=1;rounded=0;fontSize=12;startSize=8;endSize=8;curved=1;entryX=0.5;entryY=1;entryDx=0;entryDy=0;exitX=0.5;exitY=0;exitDx=0;exitDy=0;" edge="1" parent="1" source="Er5PtRPSe2BgaJqmXXbV-102" target="Er5PtRPSe2BgaJqmXXbV-100">
          <mxGeometry width="50" height="50" relative="1" as="geometry">
            <mxPoint x="1417" y="290" as="sourcePoint" />
            <mxPoint x="1467" y="240" as="targetPoint" />
          </mxGeometry>
        </mxCell>
        <mxCell id="Er5PtRPSe2BgaJqmXXbV-115" value="" style="curved=1;endArrow=classic;html=1;rounded=0;fontSize=12;startSize=8;endSize=8;exitX=1;exitY=0;exitDx=0;exitDy=0;entryX=0.5;entryY=0;entryDx=0;entryDy=0;" edge="1" parent="1" source="Er5PtRPSe2BgaJqmXXbV-101" target="Er5PtRPSe2BgaJqmXXbV-101">
          <mxGeometry width="50" height="50" relative="1" as="geometry">
            <mxPoint x="1487" y="10" as="sourcePoint" />
            <mxPoint x="1537" y="-40" as="targetPoint" />
            <Array as="points">
              <mxPoint x="1537" y="10" />
              <mxPoint x="1487" y="-40" />
            </Array>
          </mxGeometry>
        </mxCell>
        <mxCell id="Er5PtRPSe2BgaJqmXXbV-116" value="" style="curved=1;endArrow=classic;html=1;rounded=0;fontSize=12;startSize=8;endSize=8;exitX=1;exitY=1;exitDx=0;exitDy=0;entryX=1;entryY=0.5;entryDx=0;entryDy=0;" edge="1" parent="1" source="Er5PtRPSe2BgaJqmXXbV-103" target="Er5PtRPSe2BgaJqmXXbV-103">
          <mxGeometry width="50" height="50" relative="1" as="geometry">
            <mxPoint x="1817" y="285" as="sourcePoint" />
            <mxPoint x="1867" y="235" as="targetPoint" />
            <Array as="points">
              <mxPoint x="1867" y="285" />
              <mxPoint x="1817" y="235" />
            </Array>
          </mxGeometry>
        </mxCell>
        <mxCell id="Er5PtRPSe2BgaJqmXXbV-117" value="" style="curved=1;endArrow=classic;html=1;rounded=0;fontSize=12;startSize=8;endSize=8;exitX=0.64;exitY=1.018;exitDx=0;exitDy=0;exitPerimeter=0;entryX=1;entryY=1;entryDx=0;entryDy=0;" edge="1" parent="1" source="Er5PtRPSe2BgaJqmXXbV-104" target="Er5PtRPSe2BgaJqmXXbV-104">
          <mxGeometry width="50" height="50" relative="1" as="geometry">
            <mxPoint x="1447" y="510" as="sourcePoint" />
            <mxPoint x="1497" y="460" as="targetPoint" />
            <Array as="points">
              <mxPoint x="1497" y="510" />
              <mxPoint x="1547" y="480" />
            </Array>
          </mxGeometry>
        </mxCell>
        <mxCell id="Er5PtRPSe2BgaJqmXXbV-118" value="" style="curved=1;endArrow=classic;html=1;rounded=0;fontSize=12;startSize=8;endSize=8;exitX=1;exitY=1;exitDx=0;exitDy=0;entryX=0.5;entryY=1;entryDx=0;entryDy=0;" edge="1" parent="1" source="Er5PtRPSe2BgaJqmXXbV-102" target="Er5PtRPSe2BgaJqmXXbV-102">
          <mxGeometry width="50" height="50" relative="1" as="geometry">
            <mxPoint x="1067" y="520" as="sourcePoint" />
            <mxPoint x="1117" y="470" as="targetPoint" />
            <Array as="points">
              <mxPoint x="1117" y="520" />
              <mxPoint x="1067" y="470" />
            </Array>
          </mxGeometry>
        </mxCell>
        <mxCell id="Er5PtRPSe2BgaJqmXXbV-119" value="" style="endArrow=none;dashed=1;html=1;rounded=0;fontSize=12;startSize=8;endSize=8;curved=1;exitX=0;exitY=0.5;exitDx=0;exitDy=0;entryX=1;entryY=0.5;entryDx=0;entryDy=0;" edge="1" parent="1" source="Er5PtRPSe2BgaJqmXXbV-100" target="Er5PtRPSe2BgaJqmXXbV-100">
          <mxGeometry width="50" height="50" relative="1" as="geometry">
            <mxPoint x="1267" y="160" as="sourcePoint" />
            <mxPoint x="1317" y="110" as="targetPoint" />
          </mxGeometry>
        </mxCell>
        <mxCell id="Er5PtRPSe2BgaJqmXXbV-120" value="" style="endArrow=none;dashed=1;html=1;rounded=0;fontSize=12;startSize=8;endSize=8;curved=1;entryX=1;entryY=0.5;entryDx=0;entryDy=0;exitX=0;exitY=0.5;exitDx=0;exitDy=0;" edge="1" parent="1" source="Er5PtRPSe2BgaJqmXXbV-101" target="Er5PtRPSe2BgaJqmXXbV-101">
          <mxGeometry width="50" height="50" relative="1" as="geometry">
            <mxPoint x="1267" y="160" as="sourcePoint" />
            <mxPoint x="1317" y="110" as="targetPoint" />
          </mxGeometry>
        </mxCell>
        <mxCell id="Er5PtRPSe2BgaJqmXXbV-121" value="" style="endArrow=none;dashed=1;html=1;rounded=0;fontSize=12;startSize=8;endSize=8;curved=1;entryX=1;entryY=0.5;entryDx=0;entryDy=0;exitX=0;exitY=0.5;exitDx=0;exitDy=0;" edge="1" parent="1" source="Er5PtRPSe2BgaJqmXXbV-103" target="Er5PtRPSe2BgaJqmXXbV-103">
          <mxGeometry width="50" height="50" relative="1" as="geometry">
            <mxPoint x="1597" y="160" as="sourcePoint" />
            <mxPoint x="1647" y="110" as="targetPoint" />
          </mxGeometry>
        </mxCell>
        <mxCell id="Er5PtRPSe2BgaJqmXXbV-122" value="" style="endArrow=none;dashed=1;html=1;rounded=0;fontSize=12;startSize=8;endSize=8;curved=1;exitX=0;exitY=0.5;exitDx=0;exitDy=0;entryX=1;entryY=0.5;entryDx=0;entryDy=0;" edge="1" parent="1" source="Er5PtRPSe2BgaJqmXXbV-104" target="Er5PtRPSe2BgaJqmXXbV-104">
          <mxGeometry width="50" height="50" relative="1" as="geometry">
            <mxPoint x="1597" y="400" as="sourcePoint" />
            <mxPoint x="1647" y="350" as="targetPoint" />
          </mxGeometry>
        </mxCell>
        <mxCell id="Er5PtRPSe2BgaJqmXXbV-123" value="" style="endArrow=none;dashed=1;html=1;rounded=0;fontSize=12;startSize=8;endSize=8;curved=1;entryX=1;entryY=0.5;entryDx=0;entryDy=0;exitX=0;exitY=0.5;exitDx=0;exitDy=0;" edge="1" parent="1" source="Er5PtRPSe2BgaJqmXXbV-102" target="Er5PtRPSe2BgaJqmXXbV-102">
          <mxGeometry width="50" height="50" relative="1" as="geometry">
            <mxPoint x="1187" y="360" as="sourcePoint" />
            <mxPoint x="1157" y="350" as="targetPoint" />
          </mxGeometry>
        </mxCell>
        <mxCell id="Er5PtRPSe2BgaJqmXXbV-124" value="&lt;font style=&quot;font-size: 9px;&quot;&gt;&lt;b&gt;VGA_VSYNC=1&lt;br&gt;VRGB_EN=0&lt;/b&gt;&lt;/font&gt;" style="text;html=1;strokeColor=none;fillColor=none;align=center;verticalAlign=middle;whiteSpace=wrap;rounded=0;fontSize=16;" vertex="1" parent="1">
          <mxGeometry x="1057" y="50" width="60" height="30" as="geometry" />
        </mxCell>
        <mxCell id="Er5PtRPSe2BgaJqmXXbV-125" value="&lt;font style=&quot;font-size: 9px;&quot;&gt;&lt;b&gt;VGA_VSYNC=0&lt;br&gt;VRGB_EN=0&lt;/b&gt;&lt;/font&gt;" style="text;html=1;strokeColor=none;fillColor=none;align=center;verticalAlign=middle;whiteSpace=wrap;rounded=0;fontSize=16;" vertex="1" parent="1">
          <mxGeometry x="1407" y="50" width="60" height="30" as="geometry" />
        </mxCell>
        <mxCell id="Er5PtRPSe2BgaJqmXXbV-126" value="&lt;font style=&quot;font-size: 9px;&quot;&gt;&lt;b&gt;VGA_VSYNC=1&lt;br&gt;VRGB_EN=0&lt;/b&gt;&lt;/font&gt;" style="text;html=1;strokeColor=none;fillColor=none;align=center;verticalAlign=middle;whiteSpace=wrap;rounded=0;fontSize=16;" vertex="1" parent="1">
          <mxGeometry x="1717" y="250" width="60" height="30" as="geometry" />
        </mxCell>
        <mxCell id="Er5PtRPSe2BgaJqmXXbV-127" value="&lt;font style=&quot;font-size: 9px;&quot;&gt;&lt;b&gt;VGA_VSYNC=1&lt;br&gt;VRGB_EN=1&lt;/b&gt;&lt;/font&gt;" style="text;html=1;strokeColor=none;fillColor=none;align=center;verticalAlign=middle;whiteSpace=wrap;rounded=0;fontSize=16;" vertex="1" parent="1">
          <mxGeometry x="1407" y="420" width="60" height="30" as="geometry" />
        </mxCell>
        <mxCell id="Er5PtRPSe2BgaJqmXXbV-128" value="&lt;font style=&quot;font-size: 9px;&quot;&gt;&lt;b&gt;VGA_VSYNC=1&lt;br&gt;VRGB_EN=0&lt;/b&gt;&lt;/font&gt;" style="text;html=1;strokeColor=none;fillColor=none;align=center;verticalAlign=middle;whiteSpace=wrap;rounded=0;fontSize=16;" vertex="1" parent="1">
          <mxGeometry x="1057" y="420" width="60" height="30" as="geometry" />
        </mxCell>
        <mxCell id="Er5PtRPSe2BgaJqmXXbV-129" value="vcount==2" style="text;html=1;strokeColor=none;fillColor=none;align=center;verticalAlign=middle;whiteSpace=wrap;rounded=0;fontSize=16;rotation=35;" vertex="1" parent="1">
          <mxGeometry x="1577" y="110" width="60" height="30" as="geometry" />
        </mxCell>
        <mxCell id="Er5PtRPSe2BgaJqmXXbV-130" value="vcount&amp;lt;2" style="text;html=1;strokeColor=none;fillColor=none;align=center;verticalAlign=middle;whiteSpace=wrap;rounded=0;fontSize=16;" vertex="1" parent="1">
          <mxGeometry x="1467" y="-60" width="60" height="30" as="geometry" />
        </mxCell>
        <mxCell id="Er5PtRPSe2BgaJqmXXbV-131" value="vcount&amp;lt;31" style="text;html=1;strokeColor=none;fillColor=none;align=center;verticalAlign=middle;whiteSpace=wrap;rounded=0;fontSize=16;" vertex="1" parent="1">
          <mxGeometry x="1827" y="210" width="60" height="30" as="geometry" />
        </mxCell>
        <mxCell id="Er5PtRPSe2BgaJqmXXbV-132" value="vcount==31" style="text;html=1;strokeColor=none;fillColor=none;align=center;verticalAlign=middle;whiteSpace=wrap;rounded=0;fontSize=16;rotation=-30;" vertex="1" parent="1">
          <mxGeometry x="1567" y="320" width="60" height="30" as="geometry" />
        </mxCell>
        <mxCell id="Er5PtRPSe2BgaJqmXXbV-133" value="vcount&amp;lt;511" style="text;html=1;strokeColor=none;fillColor=none;align=center;verticalAlign=middle;whiteSpace=wrap;rounded=0;fontSize=16;" vertex="1" parent="1">
          <mxGeometry x="1487" y="510" width="60" height="30" as="geometry" />
        </mxCell>
        <mxCell id="Er5PtRPSe2BgaJqmXXbV-134" value="vcount==511" style="text;html=1;strokeColor=none;fillColor=none;align=center;verticalAlign=middle;whiteSpace=wrap;rounded=0;fontSize=16;" vertex="1" parent="1">
          <mxGeometry x="1237" y="390" width="60" height="30" as="geometry" />
        </mxCell>
        <mxCell id="Er5PtRPSe2BgaJqmXXbV-135" value="vcount&amp;lt;521" style="text;html=1;strokeColor=none;fillColor=none;align=center;verticalAlign=middle;whiteSpace=wrap;rounded=0;fontSize=16;" vertex="1" parent="1">
          <mxGeometry x="1067" y="500" width="60" height="30" as="geometry" />
        </mxCell>
        <mxCell id="Er5PtRPSe2BgaJqmXXbV-136" value="vcount==521" style="text;html=1;strokeColor=none;fillColor=none;align=center;verticalAlign=middle;whiteSpace=wrap;rounded=0;fontSize=16;rotation=-90;" vertex="1" parent="1">
          <mxGeometry x="1037" y="235" width="60" height="30" as="geometry" />
        </mxCell>
        <mxCell id="Er5PtRPSe2BgaJqmXXbV-137" value="" style="rounded=0;whiteSpace=wrap;html=1;fontSize=22;" vertex="1" parent="1">
          <mxGeometry x="-66" y="2168.75" width="170" height="240" as="geometry" />
        </mxCell>
        <mxCell id="Er5PtRPSe2BgaJqmXXbV-138" value="" style="endArrow=none;html=1;rounded=0;entryX=0.007;entryY=0.205;entryDx=0;entryDy=0;entryPerimeter=0;fontSize=22;" edge="1" parent="1">
          <mxGeometry width="50" height="50" relative="1" as="geometry">
            <mxPoint x="-127.19" y="2218.75" as="sourcePoint" />
            <mxPoint x="-66" y="2217.9500000000003" as="targetPoint" />
          </mxGeometry>
        </mxCell>
        <mxCell id="Er5PtRPSe2BgaJqmXXbV-139" value="" style="endArrow=none;html=1;rounded=0;entryX=0.007;entryY=0.205;entryDx=0;entryDy=0;entryPerimeter=0;fontSize=22;" edge="1" parent="1">
          <mxGeometry width="50" height="50" relative="1" as="geometry">
            <mxPoint x="-206" y="2278.75" as="sourcePoint" />
            <mxPoint x="-66" y="2278.75" as="targetPoint" />
          </mxGeometry>
        </mxCell>
        <mxCell id="Er5PtRPSe2BgaJqmXXbV-140" value="" style="endArrow=none;html=1;rounded=0;entryX=0.007;entryY=0.205;entryDx=0;entryDy=0;entryPerimeter=0;fontSize=22;" edge="1" parent="1">
          <mxGeometry width="50" height="50" relative="1" as="geometry">
            <mxPoint x="-127.19" y="2339.55" as="sourcePoint" />
            <mxPoint x="-66" y="2338.75" as="targetPoint" />
          </mxGeometry>
        </mxCell>
        <mxCell id="Er5PtRPSe2BgaJqmXXbV-141" value="" style="endArrow=none;html=1;rounded=0;fontSize=18;" edge="1" parent="1">
          <mxGeometry width="50" height="50" relative="1" as="geometry">
            <mxPoint x="104" y="2339.55" as="sourcePoint" />
            <mxPoint x="844.9143415178571" y="2338.75" as="targetPoint" />
          </mxGeometry>
        </mxCell>
        <mxCell id="Er5PtRPSe2BgaJqmXXbV-142" value="" style="endArrow=none;html=1;rounded=0;fontSize=18;" edge="1" parent="1">
          <mxGeometry width="50" height="50" relative="1" as="geometry">
            <mxPoint x="104" y="2277.55" as="sourcePoint" />
            <mxPoint x="854" y="2276.75" as="targetPoint" />
          </mxGeometry>
        </mxCell>
        <mxCell id="Er5PtRPSe2BgaJqmXXbV-143" value="" style="endArrow=none;html=1;rounded=0;fontSize=18;" edge="1" parent="1">
          <mxGeometry width="50" height="50" relative="1" as="geometry">
            <mxPoint x="104" y="2219.75" as="sourcePoint" />
            <mxPoint x="855.3332112630208" y="2218.75" as="targetPoint" />
          </mxGeometry>
        </mxCell>
        <mxCell id="Er5PtRPSe2BgaJqmXXbV-145" value="clk_out" style="text;html=1;strokeColor=none;fillColor=none;align=center;verticalAlign=middle;whiteSpace=wrap;rounded=0;fontSize=22;" vertex="1" parent="1">
          <mxGeometry x="-156" y="2188.75" width="60" height="30" as="geometry" />
        </mxCell>
        <mxCell id="Er5PtRPSe2BgaJqmXXbV-146" value="reset" style="text;html=1;strokeColor=none;fillColor=none;align=center;verticalAlign=middle;whiteSpace=wrap;rounded=0;fontSize=22;" vertex="1" parent="1">
          <mxGeometry x="-156" y="2248.75" width="60" height="30" as="geometry" />
        </mxCell>
        <mxCell id="Er5PtRPSe2BgaJqmXXbV-147" value="vga_addr" style="text;html=1;strokeColor=none;fillColor=none;align=center;verticalAlign=middle;whiteSpace=wrap;rounded=0;fontSize=22;" vertex="1" parent="1">
          <mxGeometry x="-156" y="2308.75" width="60" height="30" as="geometry" />
        </mxCell>
        <mxCell id="Er5PtRPSe2BgaJqmXXbV-148" value="" style="endArrow=none;html=1;rounded=0;fontSize=22;" edge="1" parent="1">
          <mxGeometry width="50" height="50" relative="1" as="geometry">
            <mxPoint x="-123.5" y="2348.75" as="sourcePoint" />
            <mxPoint x="-96" y="2328.75" as="targetPoint" />
          </mxGeometry>
        </mxCell>
        <mxCell id="Er5PtRPSe2BgaJqmXXbV-150" value="14" style="text;html=1;strokeColor=none;fillColor=none;align=center;verticalAlign=middle;whiteSpace=wrap;rounded=0;fontSize=22;" vertex="1" parent="1">
          <mxGeometry x="-136" y="2338.75" width="60" height="30" as="geometry" />
        </mxCell>
        <mxCell id="Er5PtRPSe2BgaJqmXXbV-151" value="&lt;font style=&quot;font-size: 22px;&quot;&gt;&lt;b style=&quot;font-size: 22px;&quot;&gt;VRAM&lt;/b&gt;&lt;/font&gt;" style="text;html=1;strokeColor=none;fillColor=none;align=center;verticalAlign=middle;whiteSpace=wrap;rounded=0;fontSize=22;" vertex="1" parent="1">
          <mxGeometry x="-11" y="2248.75" width="60" height="30" as="geometry" />
        </mxCell>
        <mxCell id="Er5PtRPSe2BgaJqmXXbV-152" value="VGA_RED" style="text;html=1;strokeColor=none;fillColor=none;align=center;verticalAlign=middle;whiteSpace=wrap;rounded=0;fontSize=22;" vertex="1" parent="1">
          <mxGeometry x="144" y="2188.75" width="60" height="30" as="geometry" />
        </mxCell>
        <mxCell id="Er5PtRPSe2BgaJqmXXbV-153" value="VGA_GREEN" style="text;html=1;strokeColor=none;fillColor=none;align=center;verticalAlign=middle;whiteSpace=wrap;rounded=0;fontSize=22;" vertex="1" parent="1">
          <mxGeometry x="154" y="2248.75" width="60" height="30" as="geometry" />
        </mxCell>
        <mxCell id="Er5PtRPSe2BgaJqmXXbV-154" value="VGA_BLUE" style="text;html=1;strokeColor=none;fillColor=none;align=center;verticalAlign=middle;whiteSpace=wrap;rounded=0;fontSize=22;" vertex="1" parent="1">
          <mxGeometry x="144" y="2308.75" width="60" height="30" as="geometry" />
        </mxCell>
        <mxCell id="Er5PtRPSe2BgaJqmXXbV-155" value="" style="rounded=0;whiteSpace=wrap;html=1;strokeWidth=1;fontSize=22;" vertex="1" parent="1">
          <mxGeometry x="-486" y="2158.75" width="150" height="200" as="geometry" />
        </mxCell>
        <mxCell id="Er5PtRPSe2BgaJqmXXbV-156" value="&lt;font style=&quot;font-size: 22px;&quot;&gt;&lt;b style=&quot;font-size: 22px;&quot;&gt;MMCME&lt;/b&gt;&lt;/font&gt;" style="text;html=1;strokeColor=none;fillColor=none;align=center;verticalAlign=middle;whiteSpace=wrap;rounded=0;strokeWidth=1;fontSize=22;" vertex="1" parent="1">
          <mxGeometry x="-441" y="2243.75" width="60" height="30" as="geometry" />
        </mxCell>
        <mxCell id="Er5PtRPSe2BgaJqmXXbV-157" value="" style="endArrow=none;html=1;rounded=0;fontSize=22;" edge="1" parent="1">
          <mxGeometry width="50" height="50" relative="1" as="geometry">
            <mxPoint x="-746" y="2208.75" as="sourcePoint" />
            <mxPoint x="-486" y="2208.75" as="targetPoint" />
          </mxGeometry>
        </mxCell>
        <mxCell id="Er5PtRPSe2BgaJqmXXbV-158" value="" style="endArrow=none;html=1;rounded=0;strokeWidth=1;fontSize=22;" edge="1" parent="1">
          <mxGeometry width="50" height="50" relative="1" as="geometry">
            <mxPoint x="-526" y="2298.75" as="sourcePoint" />
            <mxPoint x="-486" y="2298.75" as="targetPoint" />
          </mxGeometry>
        </mxCell>
        <mxCell id="Er5PtRPSe2BgaJqmXXbV-160" value="" style="endArrow=none;html=1;rounded=0;strokeWidth=1;fontSize=22;" edge="1" parent="1">
          <mxGeometry width="50" height="50" relative="1" as="geometry">
            <mxPoint x="-336" y="2218.75" as="sourcePoint" />
            <mxPoint x="-296" y="2218.75" as="targetPoint" />
          </mxGeometry>
        </mxCell>
        <mxCell id="Er5PtRPSe2BgaJqmXXbV-161" value="" style="endArrow=none;html=1;rounded=0;strokeWidth=1;fontSize=22;" edge="1" parent="1">
          <mxGeometry width="50" height="50" relative="1" as="geometry">
            <mxPoint x="-336" y="2288.75" as="sourcePoint" />
            <mxPoint x="-266" y="2288.75" as="targetPoint" />
          </mxGeometry>
        </mxCell>
        <mxCell id="Er5PtRPSe2BgaJqmXXbV-162" value="clk" style="text;html=1;strokeColor=none;fillColor=none;align=center;verticalAlign=middle;whiteSpace=wrap;rounded=0;strokeWidth=1;fontSize=22;" vertex="1" parent="1">
          <mxGeometry x="-556" y="2168.75" width="60" height="30" as="geometry" />
        </mxCell>
        <mxCell id="Er5PtRPSe2BgaJqmXXbV-163" value="clkfbin" style="text;html=1;strokeColor=none;fillColor=none;align=center;verticalAlign=middle;whiteSpace=wrap;rounded=0;strokeWidth=1;fontSize=22;" vertex="1" parent="1">
          <mxGeometry x="-556" y="2268.75" width="60" height="30" as="geometry" />
        </mxCell>
        <mxCell id="Er5PtRPSe2BgaJqmXXbV-164" value="clk_out" style="text;html=1;strokeColor=none;fillColor=none;align=center;verticalAlign=middle;whiteSpace=wrap;rounded=0;strokeWidth=1;fontSize=22;" vertex="1" parent="1">
          <mxGeometry x="-326" y="2178.75" width="60" height="30" as="geometry" />
        </mxCell>
        <mxCell id="Er5PtRPSe2BgaJqmXXbV-165" value="clkfbout" style="text;html=1;strokeColor=none;fillColor=none;align=center;verticalAlign=middle;whiteSpace=wrap;rounded=0;strokeWidth=1;fontSize=22;" vertex="1" parent="1">
          <mxGeometry x="-316" y="2258.75" width="60" height="30" as="geometry" />
        </mxCell>
        <mxCell id="Er5PtRPSe2BgaJqmXXbV-166" value="" style="endArrow=none;html=1;rounded=0;entryX=0.5;entryY=1;entryDx=0;entryDy=0;fontSize=22;" edge="1" parent="1" target="Er5PtRPSe2BgaJqmXXbV-163">
          <mxGeometry width="50" height="50" relative="1" as="geometry">
            <mxPoint x="-526" y="2418.75" as="sourcePoint" />
            <mxPoint x="-546" y="2318.75" as="targetPoint" />
          </mxGeometry>
        </mxCell>
        <mxCell id="Er5PtRPSe2BgaJqmXXbV-167" value="" style="endArrow=none;html=1;rounded=0;fontSize=22;" edge="1" parent="1">
          <mxGeometry width="50" height="50" relative="1" as="geometry">
            <mxPoint x="-526" y="2418.75" as="sourcePoint" />
            <mxPoint x="-266" y="2418.75" as="targetPoint" />
          </mxGeometry>
        </mxCell>
        <mxCell id="Er5PtRPSe2BgaJqmXXbV-168" value="" style="endArrow=none;html=1;rounded=0;fontSize=22;" edge="1" parent="1">
          <mxGeometry width="50" height="50" relative="1" as="geometry">
            <mxPoint x="-266" y="2418.75" as="sourcePoint" />
            <mxPoint x="-266" y="2288.75" as="targetPoint" />
          </mxGeometry>
        </mxCell>
        <mxCell id="Er5PtRPSe2BgaJqmXXbV-169" value="" style="endArrow=none;html=1;rounded=0;entryX=0.5;entryY=1;entryDx=0;entryDy=0;fontSize=22;" edge="1" parent="1" target="Er5PtRPSe2BgaJqmXXbV-145">
          <mxGeometry width="50" height="50" relative="1" as="geometry">
            <mxPoint x="-296" y="2218.75" as="sourcePoint" />
            <mxPoint x="-226" y="2178.75" as="targetPoint" />
          </mxGeometry>
        </mxCell>
        <mxCell id="Er5PtRPSe2BgaJqmXXbV-171" value="" style="rounded=0;whiteSpace=wrap;html=1;fontSize=22;" vertex="1" parent="1">
          <mxGeometry x="-376" y="1507.5" width="230" height="280" as="geometry" />
        </mxCell>
        <mxCell id="Er5PtRPSe2BgaJqmXXbV-172" style="edgeStyle=none;curved=1;rounded=0;orthogonalLoop=1;jettySize=auto;html=1;exitX=1;exitY=1;exitDx=0;exitDy=0;fontSize=22;startSize=8;endSize=8;" edge="1" parent="1" source="Er5PtRPSe2BgaJqmXXbV-171" target="Er5PtRPSe2BgaJqmXXbV-171">
          <mxGeometry relative="1" as="geometry" />
        </mxCell>
        <mxCell id="Er5PtRPSe2BgaJqmXXbV-173" value="&lt;b style=&quot;font-size: 22px;&quot;&gt;&lt;font style=&quot;font-size: 22px;&quot;&gt;Hcounter&lt;/font&gt;&lt;/b&gt;" style="text;html=1;strokeColor=none;fillColor=none;align=center;verticalAlign=middle;whiteSpace=wrap;rounded=0;fontSize=22;" vertex="1" parent="1">
          <mxGeometry x="-331" y="1612.5" width="140" height="60" as="geometry" />
        </mxCell>
        <mxCell id="Er5PtRPSe2BgaJqmXXbV-174" value="" style="rounded=0;whiteSpace=wrap;html=1;fontSize=22;" vertex="1" parent="1">
          <mxGeometry x="174" y="1770.42" width="243.83" height="300" as="geometry" />
        </mxCell>
        <mxCell id="Er5PtRPSe2BgaJqmXXbV-175" style="edgeStyle=none;curved=1;rounded=0;orthogonalLoop=1;jettySize=auto;html=1;exitX=1;exitY=1;exitDx=0;exitDy=0;fontSize=22;startSize=8;endSize=8;" edge="1" parent="1" source="Er5PtRPSe2BgaJqmXXbV-174" target="Er5PtRPSe2BgaJqmXXbV-174">
          <mxGeometry relative="1" as="geometry" />
        </mxCell>
        <mxCell id="Er5PtRPSe2BgaJqmXXbV-176" value="&lt;b style=&quot;font-size: 22px;&quot;&gt;&lt;font style=&quot;font-size: 22px;&quot;&gt;Vcounter&lt;/font&gt;&lt;/b&gt;" style="text;html=1;strokeColor=none;fillColor=none;align=center;verticalAlign=middle;whiteSpace=wrap;rounded=0;fontSize=22;" vertex="1" parent="1">
          <mxGeometry x="225.91000000000008" y="1890.42" width="140" height="60" as="geometry" />
        </mxCell>
        <mxCell id="Er5PtRPSe2BgaJqmXXbV-179" value="" style="endArrow=none;html=1;rounded=0;fontSize=22;" edge="1" parent="1">
          <mxGeometry width="50" height="50" relative="1" as="geometry">
            <mxPoint x="-556" y="1568.75" as="sourcePoint" />
            <mxPoint x="-556" y="2061.035679408482" as="targetPoint" />
          </mxGeometry>
        </mxCell>
        <mxCell id="Er5PtRPSe2BgaJqmXXbV-180" value="" style="endArrow=none;html=1;rounded=0;fontSize=22;" edge="1" parent="1">
          <mxGeometry width="50" height="50" relative="1" as="geometry">
            <mxPoint x="-556" y="2058.75" as="sourcePoint" />
            <mxPoint x="-306" y="2058.75" as="targetPoint" />
          </mxGeometry>
        </mxCell>
        <mxCell id="Er5PtRPSe2BgaJqmXXbV-181" value="" style="endArrow=none;html=1;rounded=0;fontSize=22;" edge="1" parent="1">
          <mxGeometry width="50" height="50" relative="1" as="geometry">
            <mxPoint x="-306" y="2058.75" as="sourcePoint" />
            <mxPoint x="-306" y="2218.75" as="targetPoint" />
          </mxGeometry>
        </mxCell>
        <mxCell id="Er5PtRPSe2BgaJqmXXbV-182" value="" style="endArrow=none;html=1;rounded=0;fontSize=22;startSize=8;endSize=8;curved=1;exitX=0;exitY=0.25;exitDx=0;exitDy=0;" edge="1" parent="1">
          <mxGeometry width="50" height="50" relative="1" as="geometry">
            <mxPoint x="-746" y="1618.75" as="sourcePoint" />
            <mxPoint x="-876" y="1618.75" as="targetPoint" />
          </mxGeometry>
        </mxCell>
        <mxCell id="Er5PtRPSe2BgaJqmXXbV-183" value="" style="endArrow=none;html=1;rounded=0;fontSize=22;startSize=8;endSize=8;curved=1;exitX=0;exitY=0.25;exitDx=0;exitDy=0;" edge="1" parent="1">
          <mxGeometry width="50" height="50" relative="1" as="geometry">
            <mxPoint x="-746" y="1838.75" as="sourcePoint" />
            <mxPoint x="-876" y="1838.75" as="targetPoint" />
          </mxGeometry>
        </mxCell>
        <mxCell id="Er5PtRPSe2BgaJqmXXbV-189" value="" style="endArrow=none;html=1;rounded=0;fontSize=22;" edge="1" parent="1">
          <mxGeometry width="50" height="50" relative="1" as="geometry">
            <mxPoint x="-746" y="2208.75" as="sourcePoint" />
            <mxPoint x="-746" y="1838.75" as="targetPoint" />
          </mxGeometry>
        </mxCell>
        <mxCell id="Er5PtRPSe2BgaJqmXXbV-190" value="" style="endArrow=none;html=1;rounded=0;fontSize=22;" edge="1" parent="1">
          <mxGeometry width="50" height="50" relative="1" as="geometry">
            <mxPoint x="-746" y="1618.75" as="sourcePoint" />
            <mxPoint x="-746" y="1698.75" as="targetPoint" />
          </mxGeometry>
        </mxCell>
        <mxCell id="Er5PtRPSe2BgaJqmXXbV-193" value="clk" style="text;html=1;strokeColor=none;fillColor=none;align=center;verticalAlign=middle;whiteSpace=wrap;rounded=0;fontSize=22;" vertex="1" parent="1">
          <mxGeometry x="-936" y="1800.42" width="60" height="30" as="geometry" />
        </mxCell>
        <mxCell id="Er5PtRPSe2BgaJqmXXbV-194" value="reset" style="text;html=1;strokeColor=none;fillColor=none;align=center;verticalAlign=middle;whiteSpace=wrap;rounded=0;fontSize=22;" vertex="1" parent="1">
          <mxGeometry x="-926" y="1582.5" width="60" height="30" as="geometry" />
        </mxCell>
        <mxCell id="Er5PtRPSe2BgaJqmXXbV-195" value="" style="endArrow=none;html=1;rounded=0;fontSize=22;" edge="1" parent="1">
          <mxGeometry width="50" height="50" relative="1" as="geometry">
            <mxPoint x="-196" y="1818.75" as="sourcePoint" />
            <mxPoint x="-196" y="2218.75" as="targetPoint" />
          </mxGeometry>
        </mxCell>
        <mxCell id="Er5PtRPSe2BgaJqmXXbV-196" value="" style="endArrow=none;html=1;rounded=0;entryX=0.5;entryY=0;entryDx=0;entryDy=0;fontSize=22;" edge="1" parent="1" target="Er5PtRPSe2BgaJqmXXbV-99">
          <mxGeometry width="50" height="50" relative="1" as="geometry">
            <mxPoint x="-16.480000000000018" y="2038.71" as="sourcePoint" />
            <mxPoint x="-16" y="1778.75" as="targetPoint" />
          </mxGeometry>
        </mxCell>
        <mxCell id="Er5PtRPSe2BgaJqmXXbV-197" value="" style="endArrow=none;html=1;rounded=0;fontSize=22;" edge="1" parent="1">
          <mxGeometry width="50" height="50" relative="1" as="geometry">
            <mxPoint x="574" y="1728.75" as="sourcePoint" />
            <mxPoint x="574" y="1528.75" as="targetPoint" />
          </mxGeometry>
        </mxCell>
        <mxCell id="Er5PtRPSe2BgaJqmXXbV-198" value="" style="endArrow=none;html=1;rounded=0;fontSize=22;" edge="1" parent="1">
          <mxGeometry width="50" height="50" relative="1" as="geometry">
            <mxPoint x="574" y="1728.75" as="sourcePoint" />
            <mxPoint x="744" y="1728.75" as="targetPoint" />
          </mxGeometry>
        </mxCell>
        <mxCell id="Er5PtRPSe2BgaJqmXXbV-199" value="" style="endArrow=none;html=1;rounded=0;fontSize=22;" edge="1" parent="1">
          <mxGeometry width="50" height="50" relative="1" as="geometry">
            <mxPoint x="-126" y="2488.75" as="sourcePoint" />
            <mxPoint x="-126" y="2338.75" as="targetPoint" />
          </mxGeometry>
        </mxCell>
        <mxCell id="Er5PtRPSe2BgaJqmXXbV-200" value="" style="endArrow=none;html=1;rounded=0;fontSize=22;" edge="1" parent="1">
          <mxGeometry width="50" height="50" relative="1" as="geometry">
            <mxPoint x="-126" y="2488.75" as="sourcePoint" />
            <mxPoint x="736.13330078125" y="2488.75" as="targetPoint" />
          </mxGeometry>
        </mxCell>
        <mxCell id="Er5PtRPSe2BgaJqmXXbV-201" value="" style="endArrow=none;html=1;rounded=0;fontSize=22;" edge="1" parent="1">
          <mxGeometry width="50" height="50" relative="1" as="geometry">
            <mxPoint x="736" y="2488.75" as="sourcePoint" />
            <mxPoint x="736" y="1728.75" as="targetPoint" />
          </mxGeometry>
        </mxCell>
        <mxCell id="Er5PtRPSe2BgaJqmXXbV-202" value="" style="endArrow=none;html=1;rounded=0;fontSize=22;" edge="1" parent="1">
          <mxGeometry width="50" height="50" relative="1" as="geometry">
            <mxPoint x="-486" y="1938.75" as="sourcePoint" />
            <mxPoint x="-486" y="1698.75" as="targetPoint" />
          </mxGeometry>
        </mxCell>
        <mxCell id="Er5PtRPSe2BgaJqmXXbV-203" value="" style="endArrow=none;html=1;rounded=0;fontSize=22;" edge="1" parent="1">
          <mxGeometry width="50" height="50" relative="1" as="geometry">
            <mxPoint x="-206" y="2278.75" as="sourcePoint" />
            <mxPoint x="-266" y="1938.75" as="targetPoint" />
          </mxGeometry>
        </mxCell>
        <mxCell id="Er5PtRPSe2BgaJqmXXbV-206" value="VGA_HSYNC" style="text;html=1;strokeColor=none;fillColor=none;align=center;verticalAlign=middle;whiteSpace=wrap;rounded=0;fontSize=22;" vertex="1" parent="1">
          <mxGeometry x="834" y="1552.5" width="60" height="30" as="geometry" />
        </mxCell>
        <mxCell id="Er5PtRPSe2BgaJqmXXbV-207" value="VGA_VSYNC" style="text;html=1;strokeColor=none;fillColor=none;align=center;verticalAlign=middle;whiteSpace=wrap;rounded=0;fontSize=22;" vertex="1" parent="1">
          <mxGeometry x="834" y="1848.75" width="60" height="30" as="geometry" />
        </mxCell>
        <mxCell id="Er5PtRPSe2BgaJqmXXbV-208" value="VGA_RED" style="text;html=1;strokeColor=none;fillColor=none;align=center;verticalAlign=middle;whiteSpace=wrap;rounded=0;fontSize=22;" vertex="1" parent="1">
          <mxGeometry x="834" y="2168.75" width="60" height="30" as="geometry" />
        </mxCell>
        <mxCell id="Er5PtRPSe2BgaJqmXXbV-209" value="VGA_GREEN" style="text;html=1;strokeColor=none;fillColor=none;align=center;verticalAlign=middle;whiteSpace=wrap;rounded=0;fontSize=22;" vertex="1" parent="1">
          <mxGeometry x="844" y="2238.75" width="60" height="30" as="geometry" />
        </mxCell>
        <mxCell id="Er5PtRPSe2BgaJqmXXbV-210" value="VGA_BLUE" style="text;html=1;strokeColor=none;fillColor=none;align=center;verticalAlign=middle;whiteSpace=wrap;rounded=0;fontSize=22;" vertex="1" parent="1">
          <mxGeometry x="834" y="2298.75" width="60" height="30" as="geometry" />
        </mxCell>
        <mxCell id="Er5PtRPSe2BgaJqmXXbV-212" value="&lt;font style=&quot;font-size: 36px;&quot;&gt;&lt;b&gt;vga_controller&lt;/b&gt;&lt;/font&gt;" style="text;html=1;strokeColor=none;fillColor=none;align=center;verticalAlign=middle;whiteSpace=wrap;rounded=0;" vertex="1" parent="1">
          <mxGeometry x="-676" y="2488.75" width="60" height="30" as="geometry" />
        </mxCell>
      </root>
    </mxGraphModel>
  </diagram>
</mxfile>
